<svg class="h-full fill-gray-500 dark:fill-gray-400" xmlns="http://www.w3.org/2000/svg" version="1.1" viewBox="0.00 0.00 384.00 179.00">
    <g stroke-width="2.00" fill="none" stroke-linecap="butt">
    <path stroke="#121231" vector-effect="non-scaling-stroke" d="   M 277.91 89.24   L 277.83 89.87   Q 277.75 90.56 277.18 90.16   Q 276.82 89.91 276.60 89.60"/>
    <path stroke="#192340" vector-effect="non-scaling-stroke" d="   M 276.60 89.60   Q 276.03 88.36 275.49 88.04   Q 262.11 80.26 261.72 65.45"/>
    <path stroke="#045f76" vector-effect="non-scaling-stroke" d="   M 261.72 65.45   C 261.76 62.70 262.67 58.40 258.66 58.30   Q 253.75 58.17 248.84 58.29   Q 246.19 58.36 246.23 61.01   Q 246.34 68.92 246.14 77.41   Q 245.76 93.26 231.95 100.30   A 2.54 2.54 0.0 0 0 230.72 103.43   Q 232.54 108.41 234.74 112.86   Q 236.03 115.47 238.26 114.46   Q 252.38 108.06 258.80 93.39"/>
    <path stroke="#192340" vector-effect="non-scaling-stroke" d="   M 258.80 93.39   Q 262.86 99.11 269.90 102.52   Q 271.05 103.07 270.45 104.20   Q 264.56 115.22 254.25 123.68   C 252.70 124.96 252.63 127.05 254.05 128.45   Q 257.21 131.55 260.29 134.65   Q 262.58 136.94 265.31 134.57   Q 273.71 127.27 279.30 119.31"/>
    <path stroke="#121231" vector-effect="non-scaling-stroke" d="   M 279.30 119.31   L 283.83 112.00   Q 284.10 111.57 284.02 111.06   Q 283.94 110.54 283.79 110.05   Q 283.65 109.60 283.82 109.47   Q 284.03 109.31 284.58 109.37"/>
    <path stroke="#045f76" vector-effect="non-scaling-stroke" d="   M 284.58 109.37   C 290.27 119.51 296.22 127.64 305.24 135.09   Q 307.20 136.71 309.24 134.90   Q 312.39 132.09 315.84 128.38   C 317.18 126.95 317.45 125.11 315.77 123.72   Q 307.60 117.00 301.93 108.31   Q 299.91 105.21 298.98 102.58"/>
    <path stroke="#192340" vector-effect="non-scaling-stroke" d="   M 298.98 102.58   Q 304.74 100.51 309.57 96.07   Q 310.67 95.07 310.18 93.61   C 308.36 88.17 306.31 82.22 306.84 76.59   Q 307.01 74.78 306.02 76.30   Q 304.76 78.23 303.55 80.28   Q 301.05 84.52 293.90 88.47"/>
    <path stroke="#045f76" vector-effect="non-scaling-stroke" d="   M 293.90 88.47   Q 292.70 82.52 292.71 80.50   Q 292.72 62.95 292.71 45.48   Q 292.71 42.67 289.91 42.67   L 279.78 42.69   A 2.52 2.51 -89.9 0 0 277.27 45.20   Q 277.20 64.23 277.22 82.75   Q 277.23 86.54 277.91 89.24"/>
    <path stroke="#1c82b5" vector-effect="non-scaling-stroke" d="   M 293.90 88.47   Q 295.49 95.60 298.98 102.58"/>
    <path stroke="#1571a6" vector-effect="non-scaling-stroke" d="   M 284.58 109.37   Q 279.88 99.90 277.91 89.24"/>
    <path stroke="#2a3570" vector-effect="non-scaling-stroke" d="   M 276.60 89.60   Q 275.38 92.96 274.11 96.36   C 273.46 98.08 272.47 99.56 271.84 101.26   Q 271.24 102.87 272.03 105.14   Q 274.67 112.69 279.30 119.31"/>
    <path stroke="#1c82b5" vector-effect="non-scaling-stroke" d="   M 261.72 65.45   Q 261.96 74.59 261.47 82.00   Q 261.13 87.32 258.80 93.39"/>
    <path stroke="#192340" vector-effect="non-scaling-stroke" d="   M 92.74 56.81   A 2.57 2.57 0.0 0 0 90.17 54.24   A 2.57 2.57 0.0 0 0 87.60 56.81   A 2.57 2.57 0.0 0 0 90.17 59.38   A 2.57 2.57 0.0 0 0 92.74 56.81"/>
    <path stroke="#045f76" vector-effect="non-scaling-stroke" d="   M 338.27 106.03   C 339.35 103.37 340.65 101.69 337.26 99.84   Q 323.90 92.55 323.86 76.77   Q 323.83 67.61 323.79 60.53   A 2.28 2.28 0.0 0 0 321.52 58.27   L 310.42 58.25   A 1.85 1.84 -87.7 0 0 308.57 59.96   Q 307.82 70.34 308.17 79.68   C 308.73 94.61 318.13 108.11 331.40 114.21   Q 334.13 115.47 335.33 112.87   Q 336.85 109.54 338.27 106.03"/>
    <path stroke="#192340" vector-effect="non-scaling-stroke" d="   M 80.28 79.95   Q 70.13 79.65 59.45 79.71   C 54.63 79.74 49.63 77.96 49.09 72.35   Q 48.78 69.01 48.69 65.42   Q 48.67 64.72 47.97 64.73   L 45.50 64.75   Q 44.67 64.76 44.62 65.59   Q 44.37 69.85 44.87 73.53   C 45.83 80.50 52.46 83.13 58.61 83.07   Q 71.20 82.95 86.03 83.09   C 93.09 83.15 98.34 80.86 99.02 73.13   Q 99.76 64.76 93.55 62.36   C 85.78 59.35 78.25 64.07 78.15 72.52   Q 78.10 76.60 80.54 79.40   A 0.33 0.33 0.0 0 1 80.28 79.95"/>
    <path stroke="#192340" vector-effect="non-scaling-stroke" d="   M 180.31 79.91   A 0.34 0.34 0.0 0 1 180.83 79.84   C 185.49 84.05 193.16 83.39 199.01 83.15   A 0.92 0.92 0.0 0 0 199.89 82.24   Q 199.96 76.15 199.88 70.66   C 199.81 65.84 197.11 61.79 192.05 61.49   Q 183.46 60.99 179.97 67.77   C 178.52 70.61 178.86 73.94 178.24 77.03   Q 177.69 79.78 174.85 79.78   Q 158.18 79.73 141.77 79.72   A 0.73 0.73 0.0 0 1 141.04 78.98   L 141.20 63.56   A 0.81 0.81 0.0 0 0 140.62 62.78   C 135.39 61.21 127.31 60.08 123.05 64.36   C 118.08 69.37 118.43 80.90 126.92 82.64   Q 130.64 83.41 135.22 82.98   A 0.66 0.65 74.1 0 1 135.88 83.35   Q 136.14 83.90 135.80 84.25   C 132.42 87.64 126.39 86.84 121.97 86.80   Q 120.76 86.78 120.69 87.99   L 120.61 89.28   A 0.95 0.95 0.0 0 0 121.53 90.29   C 128.39 90.55 136.81 91.14 140.32 84.00   A 1.56 1.56 0.0 0 1 141.72 83.13   Q 158.18 83.10 174.93 82.94   Q 178.49 82.91 180.31 79.91"/>
    <path stroke="#192340" vector-effect="non-scaling-stroke" d="   M 107.22 81.10   C 107.23 85.41 104.45 87.30 99.90 86.99   Q 97.93 86.86 98.11 88.83   L 98.15 89.24   A 1.42 1.41 89.0 0 0 99.46 90.51   Q 111.93 91.35 111.83 78.70   Q 111.76 70.57 111.78 63.28   Q 111.78 62.01 110.51 62.01   L 108.53 62.01   Q 107.45 62.01 107.42 63.10   Q 107.20 72.32 107.22 81.10"/>
    <path stroke="#192340" vector-effect="non-scaling-stroke" d="   M 111.9289 110.4718   A 14.88 13.95 0.7 0 0 97.2204 96.3410   A 14.88 13.95 0.7 0 0 82.1711 110.1082   A 14.88 13.95 0.7 0 0 96.8796 124.2390   A 14.88 13.95 0.7 0 0 111.9289 110.4718"/>
    <path stroke="#192340" vector-effect="non-scaling-stroke" d="   M 48.92 106.30   Q 48.93 104.51 49.83 106.06   L 57.81 119.86   A 1.53 1.48 -4.2 0 0 58.60 120.52   Q 60.04 121.06 60.46 120.31   Q 65.09 112.29 68.65 105.73   Q 69.74 103.73 69.73 106.01   L 69.66 122.22   Q 69.66 123.79 71.22 123.75   L 72.80 123.72   Q 74.04 123.69 74.04 122.45   L 74.00 97.78   Q 74.00 97.25 73.51 97.08   Q 70.43 95.99 68.91 98.78   Q 64.30 107.22 59.86 114.69   Q 59.35 115.54 58.85 114.68   L 48.95 97.68   Q 48.63 97.13 48.01 96.98   Q 46.56 96.64 45.16 96.95   Q 44.53 97.10 44.53 97.74   L 44.50 122.27   Q 44.50 123.79 46.02 123.76   L 47.78 123.72   Q 48.75 123.70 48.76 122.72   L 48.92 106.30"/>
    <path stroke="#192340" vector-effect="non-scaling-stroke" d="   M 154.78 115.75   C 159.21 115.78 164.00 116.08 167.58 113.04   Q 170.17 110.84 170.27 107.34   C 170.59 95.48 158.58 96.81 150.79 96.86   Q 149.41 96.87 149.41 98.25   L 149.36 122.23   Q 149.36 123.85 150.99 123.81   L 152.35 123.78   Q 153.96 123.75 153.87 122.15   L 153.60 116.98   A 1.17 1.16 89.1 0 1 154.78 115.75"/>
    <path stroke="#192340" vector-effect="non-scaling-stroke" d="   M 195.45 107.13   A 1.06 1.06 0.0 0 1 194.38 108.19   L 184.10 108.06   A 1.06 1.06 0.0 0 1 183.05 106.98   L 183.20 97.95   A 1.06 1.06 0.0 0 0 182.19 96.87   L 179.85 96.77   A 1.06 1.06 0.0 0 0 178.75 97.83   L 178.67 122.79   A 1.06 1.06 0.0 0 0 179.64 123.85   L 181.99 124.06   A 1.06 1.06 0.0 0 0 183.14 122.98   L 183.00 113.08   A 1.06 1.06 0.0 0 1 184.05 112.00   L 194.40 111.93   A 1.06 1.06 0.0 0 1 195.47 112.99   L 195.44 122.74   A 1.06 1.06 0.0 0 0 196.49 123.80   L 198.84 123.84   A 1.06 1.06 0.0 0 0 199.91 122.78   L 199.99 97.78   A 1.06 1.06 0.0 0 0 198.91 96.72   L 196.48 96.75   A 1.06 1.06 0.0 0 0 195.44 97.81   L 195.45 107.13"/>
    <path stroke="#192340" vector-effect="non-scaling-stroke" d="   M 135.32 114.74   C 139.58 113.23 141.60 109.07 140.88 104.76   Q 139.73 97.80 131.61 97.10   Q 126.61 96.66 121.21 96.95   A 1.23 1.22 88.5 0 0 120.05 98.18   L 119.97 122.32   Q 119.97 123.91 121.56 123.87   L 122.83 123.84   Q 124.46 123.79 124.41 122.17   L 124.24 116.61   A 0.90 0.89 -0.9 0 1 125.14 115.69   L 129.79 115.71   Q 130.51 115.71 130.91 116.30   L 134.98 122.36   Q 136.10 124.02 138.08 123.75   L 138.83 123.65   Q 140.83 123.38 139.60 121.77   L 135.02 115.77   A 0.67 0.66 61.5 0 1 135.32 114.74"/>
    <path stroke="#192340" vector-effect="non-scaling-stroke" d="   M 88.1624 79.8724   A 7.61 6.40 93.9 0 0 95.0652 72.7153   A 7.61 6.40 93.9 0 0 89.1976 64.6876   A 7.61 6.40 93.9 0 0 82.2948 71.8447   A 7.61 6.40 93.9 0 0 88.1624 79.8724"/>
    <path stroke="#192340" vector-effect="non-scaling-stroke" d="   M 136.76 77.87   L 136.76 66.79   A 1.79 1.79 0.0 0 0 134.97 65.00   L 130.88 65.00   A 6.40 6.28 -0.0 0 0 124.48 71.28   L 124.48 73.38   A 6.40 6.28 0.0 0 0 130.88 79.66   L 134.97 79.66   A 1.79 1.79 0.0 0 0 136.76 77.87"/>
    <path stroke="#192340" vector-effect="non-scaling-stroke" d="   M 187.46 79.14   Q 190.90 80.04 194.92 79.59   A 0.69 0.68 88.1 0 0 195.53 78.93   Q 195.72 73.35 195.03 68.49   C 194.53 64.95 190.68 64.38 187.80 65.29   C 181.91 67.16 180.93 77.44 187.46 79.14"/>
    <path stroke="#192340" vector-effect="non-scaling-stroke" d="   M 107.4853 109.3838   A 10.46 10.14 -5.3 0 0 96.1334 100.2534   A 10.46 10.14 -5.3 0 0 86.6547 111.3162   A 10.46 10.14 -5.3 0 0 98.0066 120.4466   A 10.46 10.14 -5.3 0 0 107.4853 109.3838"/>
    <path stroke="#192340" vector-effect="non-scaling-stroke" d="   M 153.60 101.53   L 153.62 111.23   A 1.09 1.09 0.0 0 0 154.71 112.32   L 159.10 112.31   A 7.14 5.80 -0.1 0 0 166.23 106.50   L 166.23 106.22   A 7.14 5.80 -0.1 0 0 159.08 100.43   L 154.69 100.44   A 1.09 1.09 0.0 0 0 153.60 101.53"/>
    <path stroke="#192340" vector-effect="non-scaling-stroke" d="   M 124.28 101.24   L 124.26 111.52   A 0.80 0.80 0.0 0 0 125.06 112.32   L 129.87 112.33   A 6.89 5.52 0.1 0 0 136.77 106.82   L 136.77 105.98   A 6.89 5.52 0.1 0 0 129.89 100.45   L 125.08 100.44   A 0.80 0.80 0.0 0 0 124.28 101.24"/>
    </g>
    <path fill="#000000" d="   M 0.00 0.00   L 384.00 0.00   L 384.00 179.00   L 0.00 179.00   L 0.00 0.00   Z   M 277.91 89.24   L 277.83 89.87   Q 277.75 90.56 277.18 90.16   Q 276.82 89.91 276.60 89.60   Q 276.03 88.36 275.49 88.04   Q 262.11 80.26 261.72 65.45   C 261.76 62.70 262.67 58.40 258.66 58.30   Q 253.75 58.17 248.84 58.29   Q 246.19 58.36 246.23 61.01   Q 246.34 68.92 246.14 77.41   Q 245.76 93.26 231.95 100.30   A 2.54 2.54 0.0 0 0 230.72 103.43   Q 232.54 108.41 234.74 112.86   Q 236.03 115.47 238.26 114.46   Q 252.38 108.06 258.80 93.39   Q 262.86 99.11 269.90 102.52   Q 271.05 103.07 270.45 104.20   Q 264.56 115.22 254.25 123.68   C 252.70 124.96 252.63 127.05 254.05 128.45   Q 257.21 131.55 260.29 134.65   Q 262.58 136.94 265.31 134.57   Q 273.71 127.27 279.30 119.31   L 283.83 112.00   Q 284.10 111.57 284.02 111.06   Q 283.94 110.54 283.79 110.05   Q 283.65 109.60 283.82 109.47   Q 284.03 109.31 284.58 109.37   C 290.27 119.51 296.22 127.64 305.24 135.09   Q 307.20 136.71 309.24 134.90   Q 312.39 132.09 315.84 128.38   C 317.18 126.95 317.45 125.11 315.77 123.72   Q 307.60 117.00 301.93 108.31   Q 299.91 105.21 298.98 102.58   Q 304.74 100.51 309.57 96.07   Q 310.67 95.07 310.18 93.61   C 308.36 88.17 306.31 82.22 306.84 76.59   Q 307.01 74.78 306.02 76.30   Q 304.76 78.23 303.55 80.28   Q 301.05 84.52 293.90 88.47   Q 292.70 82.52 292.71 80.50   Q 292.72 62.95 292.71 45.48   Q 292.71 42.67 289.91 42.67   L 279.78 42.69   A 2.52 2.51 -89.9 0 0 277.27 45.20   Q 277.20 64.23 277.22 82.75   Q 277.23 86.54 277.91 89.24   Z   M 92.74 56.81   A 2.57 2.57 0.0 0 0 90.17 54.24   A 2.57 2.57 0.0 0 0 87.60 56.81   A 2.57 2.57 0.0 0 0 90.17 59.38   A 2.57 2.57 0.0 0 0 92.74 56.81   Z   M 338.27 106.03   C 339.35 103.37 340.65 101.69 337.26 99.84   Q 323.90 92.55 323.86 76.77   Q 323.83 67.61 323.79 60.53   A 2.28 2.28 0.0 0 0 321.52 58.27   L 310.42 58.25   A 1.85 1.84 -87.7 0 0 308.57 59.96   Q 307.82 70.34 308.17 79.68   C 308.73 94.61 318.13 108.11 331.40 114.21   Q 334.13 115.47 335.33 112.87   Q 336.85 109.54 338.27 106.03   Z   M 80.28 79.95   Q 70.13 79.65 59.45 79.71   C 54.63 79.74 49.63 77.96 49.09 72.35   Q 48.78 69.01 48.69 65.42   Q 48.67 64.72 47.97 64.73   L 45.50 64.75   Q 44.67 64.76 44.62 65.59   Q 44.37 69.85 44.87 73.53   C 45.83 80.50 52.46 83.13 58.61 83.07   Q 71.20 82.95 86.03 83.09   C 93.09 83.15 98.34 80.86 99.02 73.13   Q 99.76 64.76 93.55 62.36   C 85.78 59.35 78.25 64.07 78.15 72.52   Q 78.10 76.60 80.54 79.40   A 0.33 0.33 0.0 0 1 80.28 79.95   Z   M 180.31 79.91   A 0.34 0.34 0.0 0 1 180.83 79.84   C 185.49 84.05 193.16 83.39 199.01 83.15   A 0.92 0.92 0.0 0 0 199.89 82.24   Q 199.96 76.15 199.88 70.66   C 199.81 65.84 197.11 61.79 192.05 61.49   Q 183.46 60.99 179.97 67.77   C 178.52 70.61 178.86 73.94 178.24 77.03   Q 177.69 79.78 174.85 79.78   Q 158.18 79.73 141.77 79.72   A 0.73 0.73 0.0 0 1 141.04 78.98   L 141.20 63.56   A 0.81 0.81 0.0 0 0 140.62 62.78   C 135.39 61.21 127.31 60.08 123.05 64.36   C 118.08 69.37 118.43 80.90 126.92 82.64   Q 130.64 83.41 135.22 82.98   A 0.66 0.65 74.1 0 1 135.88 83.35   Q 136.14 83.90 135.80 84.25   C 132.42 87.64 126.39 86.84 121.97 86.80   Q 120.76 86.78 120.69 87.99   L 120.61 89.28   A 0.95 0.95 0.0 0 0 121.53 90.29   C 128.39 90.55 136.81 91.14 140.32 84.00   A 1.56 1.56 0.0 0 1 141.72 83.13   Q 158.18 83.10 174.93 82.94   Q 178.49 82.91 180.31 79.91   Z   M 107.22 81.10   C 107.23 85.41 104.45 87.30 99.90 86.99   Q 97.93 86.86 98.11 88.83   L 98.15 89.24   A 1.42 1.41 89.0 0 0 99.46 90.51   Q 111.93 91.35 111.83 78.70   Q 111.76 70.57 111.78 63.28   Q 111.78 62.01 110.51 62.01   L 108.53 62.01   Q 107.45 62.01 107.42 63.10   Q 107.20 72.32 107.22 81.10   Z   M 111.9289 110.4718   A 14.88 13.95 0.7 0 0 97.2204 96.3410   A 14.88 13.95 0.7 0 0 82.1711 110.1082   A 14.88 13.95 0.7 0 0 96.8796 124.2390   A 14.88 13.95 0.7 0 0 111.9289 110.4718   Z   M 48.92 106.30   Q 48.93 104.51 49.83 106.06   L 57.81 119.86   A 1.53 1.48 -4.2 0 0 58.60 120.52   Q 60.04 121.06 60.46 120.31   Q 65.09 112.29 68.65 105.73   Q 69.74 103.73 69.73 106.01   L 69.66 122.22   Q 69.66 123.79 71.22 123.75   L 72.80 123.72   Q 74.04 123.69 74.04 122.45   L 74.00 97.78   Q 74.00 97.25 73.51 97.08   Q 70.43 95.99 68.91 98.78   Q 64.30 107.22 59.86 114.69   Q 59.35 115.54 58.85 114.68   L 48.95 97.68   Q 48.63 97.13 48.01 96.98   Q 46.56 96.64 45.16 96.95   Q 44.53 97.10 44.53 97.74   L 44.50 122.27   Q 44.50 123.79 46.02 123.76   L 47.78 123.72   Q 48.75 123.70 48.76 122.72   L 48.92 106.30   Z   M 154.78 115.75   C 159.21 115.78 164.00 116.08 167.58 113.04   Q 170.17 110.84 170.27 107.34   C 170.59 95.48 158.58 96.81 150.79 96.86   Q 149.41 96.87 149.41 98.25   L 149.36 122.23   Q 149.36 123.85 150.99 123.81   L 152.35 123.78   Q 153.96 123.75 153.87 122.15   L 153.60 116.98   A 1.17 1.16 89.1 0 1 154.78 115.75   Z   M 195.45 107.13   A 1.06 1.06 0.0 0 1 194.38 108.19   L 184.10 108.06   A 1.06 1.06 0.0 0 1 183.05 106.98   L 183.20 97.95   A 1.06 1.06 0.0 0 0 182.19 96.87   L 179.85 96.77   A 1.06 1.06 0.0 0 0 178.75 97.83   L 178.67 122.79   A 1.06 1.06 0.0 0 0 179.64 123.85   L 181.99 124.06   A 1.06 1.06 0.0 0 0 183.14 122.98   L 183.00 113.08   A 1.06 1.06 0.0 0 1 184.05 112.00   L 194.40 111.93   A 1.06 1.06 0.0 0 1 195.47 112.99   L 195.44 122.74   A 1.06 1.06 0.0 0 0 196.49 123.80   L 198.84 123.84   A 1.06 1.06 0.0 0 0 199.91 122.78   L 199.99 97.78   A 1.06 1.06 0.0 0 0 198.91 96.72   L 196.48 96.75   A 1.06 1.06 0.0 0 0 195.44 97.81   L 195.45 107.13   Z   M 135.32 114.74   C 139.58 113.23 141.60 109.07 140.88 104.76   Q 139.73 97.80 131.61 97.10   Q 126.61 96.66 121.21 96.95   A 1.23 1.22 88.5 0 0 120.05 98.18   L 119.97 122.32   Q 119.97 123.91 121.56 123.87   L 122.83 123.84   Q 124.46 123.79 124.41 122.17   L 124.24 116.61   A 0.90 0.89 -0.9 0 1 125.14 115.69   L 129.79 115.71   Q 130.51 115.71 130.91 116.30   L 134.98 122.36   Q 136.10 124.02 138.08 123.75   L 138.83 123.65   Q 140.83 123.38 139.60 121.77   L 135.02 115.77   A 0.67 0.66 61.5 0 1 135.32 114.74   Z"/>
    <path fill="#07beeb" d="   M 293.90 88.47   Q 295.49 95.60 298.98 102.58   Q 299.91 105.21 301.93 108.31   Q 307.60 117.00 315.77 123.72   C 317.45 125.11 317.18 126.95 315.84 128.38   Q 312.39 132.09 309.24 134.90   Q 307.20 136.71 305.24 135.09   C 296.22 127.64 290.27 119.51 284.58 109.37   Q 279.88 99.90 277.91 89.24   Q 277.23 86.54 277.22 82.75   Q 277.20 64.23 277.27 45.20   A 2.52 2.51 -89.9 0 1 279.78 42.69   L 289.91 42.67   Q 292.71 42.67 292.71 45.48   Q 292.72 62.95 292.71 80.50   Q 292.70 82.52 293.90 88.47   Z"/>
    <circle fill="#31467f" cx="90.17" cy="56.81" r="2.57"/>
    <path fill="#07beeb" d="   M 261.72 65.45   Q 261.96 74.59 261.47 82.00   Q 261.13 87.32 258.80 93.39   Q 252.38 108.06 238.26 114.46   Q 236.03 115.47 234.74 112.86   Q 232.54 108.41 230.72 103.43   A 2.54 2.54 0.0 0 1 231.95 100.30   Q 245.76 93.26 246.14 77.41   Q 246.34 68.92 246.23 61.01   Q 246.19 58.36 248.84 58.29   Q 253.75 58.17 258.66 58.30   C 262.67 58.40 261.76 62.70 261.72 65.45   Z"/>
    <path fill="#07beeb" d="   M 338.27 106.03   Q 336.85 109.54 335.33 112.87   Q 334.13 115.47 331.40 114.21   C 318.13 108.11 308.73 94.61 308.17 79.68   Q 307.82 70.34 308.57 59.96   A 1.85 1.84 -87.7 0 1 310.42 58.25   L 321.52 58.27   A 2.28 2.28 0.0 0 1 323.79 60.53   Q 323.83 67.61 323.86 76.77   Q 323.90 92.55 337.26 99.84   C 340.65 101.69 339.35 103.37 338.27 106.03   Z"/>
    <path fill="#31467f" d="   M 80.28 79.95   A 0.33 0.33 0.0 0 0 80.54 79.40   Q 78.10 76.60 78.15 72.52   C 78.25 64.07 85.78 59.35 93.55 62.36   Q 99.76 64.76 99.02 73.13   C 98.34 80.86 93.09 83.15 86.03 83.09   Q 71.20 82.95 58.61 83.07   C 52.46 83.13 45.83 80.50 44.87 73.53   Q 44.37 69.85 44.62 65.59   Q 44.67 64.76 45.50 64.75   L 47.97 64.73   Q 48.67 64.72 48.69 65.42   Q 48.78 69.01 49.09 72.35   C 49.63 77.96 54.63 79.74 59.45 79.71   Q 70.13 79.65 80.28 79.95   Z   M 88.1624 79.8724   A 7.61 6.40 93.9 0 0 95.0652 72.7153   A 7.61 6.40 93.9 0 0 89.1976 64.6876   A 7.61 6.40 93.9 0 0 82.2948 71.8447   A 7.61 6.40 93.9 0 0 88.1624 79.8724   Z"/>
    <path fill="#31467f" d="   M 180.31 79.91   Q 178.49 82.91 174.93 82.94   Q 158.18 83.10 141.72 83.13   A 1.56 1.56 0.0 0 0 140.32 84.00   C 136.81 91.14 128.39 90.55 121.53 90.29   A 0.95 0.95 0.0 0 1 120.61 89.28   L 120.69 87.99   Q 120.76 86.78 121.97 86.80   C 126.39 86.84 132.42 87.64 135.80 84.25   Q 136.14 83.90 135.88 83.35   A 0.66 0.65 74.1 0 0 135.22 82.98   Q 130.64 83.41 126.92 82.64   C 118.43 80.90 118.08 69.37 123.05 64.36   C 127.31 60.08 135.39 61.21 140.62 62.78   A 0.81 0.81 0.0 0 1 141.20 63.56   L 141.04 78.98   A 0.73 0.73 0.0 0 0 141.77 79.72   Q 158.18 79.73 174.85 79.78   Q 177.69 79.78 178.24 77.03   C 178.86 73.94 178.52 70.61 179.97 67.77   Q 183.46 60.99 192.05 61.49   C 197.11 61.79 199.81 65.84 199.88 70.66   Q 199.96 76.15 199.89 82.24   A 0.92 0.92 0.0 0 1 199.01 83.15   C 193.16 83.39 185.49 84.05 180.83 79.84   A 0.34 0.34 0.0 0 0 180.31 79.91   Z   M 136.76 77.87   L 136.76 66.79   A 1.79 1.79 0.0 0 0 134.97 65.00   L 130.88 65.00   A 6.40 6.28 -0.0 0 0 124.48 71.28   L 124.48 73.38   A 6.40 6.28 0.0 0 0 130.88 79.66   L 134.97 79.66   A 1.79 1.79 0.0 0 0 136.76 77.87   Z   M 187.46 79.14   Q 190.90 80.04 194.92 79.59   A 0.69 0.68 88.1 0 0 195.53 78.93   Q 195.72 73.35 195.03 68.49   C 194.53 64.95 190.68 64.38 187.80 65.29   C 181.91 67.16 180.93 77.44 187.46 79.14   Z"/>
    <path fill="#31467f" d="   M 99.90 86.99   C 104.45 87.30 107.23 85.41 107.22 81.10   Q 107.20 72.32 107.42 63.10   Q 107.45 62.01 108.53 62.01   L 110.51 62.01   Q 111.78 62.01 111.78 63.28   Q 111.76 70.57 111.83 78.70   Q 111.93 91.35 99.46 90.51   A 1.42 1.41 89.0 0 1 98.15 89.24   L 98.11 88.83   Q 97.93 86.86 99.90 86.99   Z"/>
    <ellipse fill="#000000" cx="0.00" cy="0.00" transform="translate(88.68,72.28) rotate(93.9)" rx="7.61" ry="6.40"/>
    <path fill="#000000" d="   M 136.76 77.87   A 1.79 1.79 0.0 0 1 134.97 79.66   L 130.88 79.66   A 6.40 6.28 0.0 0 1 124.48 73.38   L 124.48 71.28   A 6.40 6.28 -0.0 0 1 130.88 65.00   L 134.97 65.00   A 1.79 1.79 0.0 0 1 136.76 66.79   L 136.76 77.87   Z"/>
    <path fill="#000000" d="   M 187.46 79.14   C 180.93 77.44 181.91 67.16 187.80 65.29   C 190.68 64.38 194.53 64.95 195.03 68.49   Q 195.72 73.35 195.53 78.93   A 0.69 0.68 88.1 0 1 194.92 79.59   Q 190.90 80.04 187.46 79.14   Z"/>
    <path fill="#31467f" d="   M 261.72 65.45   Q 262.11 80.26 275.49 88.04   Q 276.03 88.36 276.60 89.60   Q 275.38 92.96 274.11 96.36   C 273.46 98.08 272.47 99.56 271.84 101.26   Q 271.24 102.87 272.03 105.14   Q 274.67 112.69 279.30 119.31   Q 273.71 127.27 265.31 134.57   Q 262.58 136.94 260.29 134.65   Q 257.21 131.55 254.05 128.45   C 252.63 127.05 252.70 124.96 254.25 123.68   Q 264.56 115.22 270.45 104.20   Q 271.05 103.07 269.90 102.52   Q 262.86 99.11 258.80 93.39   Q 261.13 87.32 261.47 82.00   Q 261.96 74.59 261.72 65.45   Z"/>
    <path fill="#31467f" d="   M 298.98 102.58   Q 295.49 95.60 293.90 88.47   Q 301.05 84.52 303.55 80.28   Q 304.76 78.23 306.02 76.30   Q 307.01 74.78 306.84 76.59   C 306.31 82.22 308.36 88.17 310.18 93.61   Q 310.67 95.07 309.57 96.07   Q 304.74 100.51 298.98 102.58   Z"/>
    <path fill="#232461" d="   M 277.91 89.24   Q 279.88 99.90 284.58 109.37   Q 284.03 109.31 283.82 109.47   Q 283.65 109.60 283.79 110.05   Q 283.94 110.54 284.02 111.06   Q 284.10 111.57 283.83 112.00   L 279.30 119.31   Q 274.67 112.69 272.03 105.14   Q 271.24 102.87 271.84 101.26   C 272.47 99.56 273.46 98.08 274.11 96.36   Q 275.38 92.96 276.60 89.60   Q 276.82 89.91 277.18 90.16   Q 277.75 90.56 277.83 89.87   L 277.91 89.24   Z"/>
    <path fill="#31467f" d="   M 111.9289 110.4718   A 14.88 13.95 0.7 0 1 96.8796 124.2390   A 14.88 13.95 0.7 0 1 82.1711 110.1082   A 14.88 13.95 0.7 0 1 97.2204 96.3410   A 14.88 13.95 0.7 0 1 111.9289 110.4718   Z   M 107.4853 109.3838   A 10.46 10.14 -5.3 0 0 96.1334 100.2534   A 10.46 10.14 -5.3 0 0 86.6547 111.3162   A 10.46 10.14 -5.3 0 0 98.0066 120.4466   A 10.46 10.14 -5.3 0 0 107.4853 109.3838   Z"/>
    <path fill="#31467f" d="   M 48.92 106.30   L 48.76 122.72   Q 48.75 123.70 47.78 123.72   L 46.02 123.76   Q 44.50 123.79 44.50 122.27   L 44.53 97.74   Q 44.53 97.10 45.16 96.95   Q 46.56 96.64 48.01 96.98   Q 48.63 97.13 48.95 97.68   L 58.85 114.68   Q 59.35 115.54 59.86 114.69   Q 64.30 107.22 68.91 98.78   Q 70.43 95.99 73.51 97.08   Q 74.00 97.25 74.00 97.78   L 74.04 122.45   Q 74.04 123.69 72.80 123.72   L 71.22 123.75   Q 69.66 123.79 69.66 122.22   L 69.73 106.01   Q 69.74 103.73 68.65 105.73   Q 65.09 112.29 60.46 120.31   Q 60.04 121.06 58.60 120.52   A 1.53 1.48 -4.2 0 1 57.81 119.86   L 49.83 106.06   Q 48.93 104.51 48.92 106.30   Z"/>
    <path fill="#31467f" d="   M 154.78 115.75   A 1.17 1.16 89.1 0 0 153.60 116.98   L 153.87 122.15   Q 153.96 123.75 152.35 123.78   L 150.99 123.81   Q 149.36 123.85 149.36 122.23   L 149.41 98.25   Q 149.41 96.87 150.79 96.86   C 158.58 96.81 170.59 95.48 170.27 107.34   Q 170.17 110.84 167.58 113.04   C 164.00 116.08 159.21 115.78 154.78 115.75   Z   M 153.60 101.53   L 153.62 111.23   A 1.09 1.09 0.0 0 0 154.71 112.32   L 159.10 112.31   A 7.14 5.80 -0.1 0 0 166.23 106.50   L 166.23 106.22   A 7.14 5.80 -0.1 0 0 159.08 100.43   L 154.69 100.44   A 1.09 1.09 0.0 0 0 153.60 101.53   Z"/>
    <path fill="#31467f" d="   M 195.45 107.13   L 195.44 97.81   A 1.06 1.06 0.0 0 1 196.48 96.75   L 198.91 96.72   A 1.06 1.06 0.0 0 1 199.99 97.78   L 199.91 122.78   A 1.06 1.06 0.0 0 1 198.84 123.84   L 196.49 123.80   A 1.06 1.06 0.0 0 1 195.44 122.74   L 195.47 112.99   A 1.06 1.06 0.0 0 0 194.40 111.93   L 184.05 112.00   A 1.06 1.06 0.0 0 0 183.00 113.08   L 183.14 122.98   A 1.06 1.06 0.0 0 1 181.99 124.06   L 179.64 123.85   A 1.06 1.06 0.0 0 1 178.67 122.79   L 178.75 97.83   A 1.06 1.06 0.0 0 1 179.85 96.77   L 182.19 96.87   A 1.06 1.06 0.0 0 1 183.20 97.95   L 183.05 106.98   A 1.06 1.06 0.0 0 0 184.10 108.06   L 194.38 108.19   A 1.06 1.06 0.0 0 0 195.45 107.13   Z"/>
    <path fill="#31467f" d="   M 135.32 114.74   A 0.67 0.66 61.5 0 0 135.02 115.77   L 139.60 121.77   Q 140.83 123.38 138.83 123.65   L 138.08 123.75   Q 136.10 124.02 134.98 122.36   L 130.91 116.30   Q 130.51 115.71 129.79 115.71   L 125.14 115.69   A 0.90 0.89 -0.9 0 0 124.24 116.61   L 124.41 122.17   Q 124.46 123.79 122.83 123.84   L 121.56 123.87   Q 119.97 123.91 119.97 122.32   L 120.05 98.18   A 1.23 1.22 88.5 0 1 121.21 96.95   Q 126.61 96.66 131.61 97.10   Q 139.73 97.80 140.88 104.76   C 141.60 109.07 139.58 113.23 135.32 114.74   Z   M 124.28 101.24   L 124.26 111.52   A 0.80 0.80 0.0 0 0 125.06 112.32   L 129.87 112.33   A 6.89 5.52 0.1 0 0 136.77 106.82   L 136.77 105.98   A 6.89 5.52 0.1 0 0 129.89 100.45   L 125.08 100.44   A 0.80 0.80 0.0 0 0 124.28 101.24   Z"/>
    <ellipse fill="#000000" cx="0.00" cy="0.00" transform="translate(97.07,110.35) rotate(-5.3)" rx="10.46" ry="10.14"/>
    <path fill="#000000" d="   M 124.28 101.24   A 0.80 0.80 0.0 0 1 125.08 100.44   L 129.89 100.45   A 6.89 5.52 0.1 0 1 136.77 105.98   L 136.77 106.82   A 6.89 5.52 0.1 0 1 129.87 112.33   L 125.06 112.32   A 0.80 0.80 0.0 0 1 124.26 111.52   L 124.28 101.24   Z"/>
    <path fill="#000000" d="   M 153.60 101.53   A 1.09 1.09 0.0 0 1 154.69 100.44   L 159.08 100.43   A 7.14 5.80 -0.1 0 1 166.23 106.22   L 166.23 106.50   A 7.14 5.80 -0.1 0 1 159.10 112.31   L 154.71 112.32   A 1.09 1.09 0.0 0 1 153.62 111.23   L 153.60 101.53   Z"/>
    </svg>